<?xml version="1.0" standalone="no"?>
<!DOCTYPE svg PUBLIC "-//W3C//DTD SVG 20010904//EN"
 "http://www.w3.org/TR/2001/REC-SVG-20010904/DTD/svg10.dtd">
<svg version="1.0" xmlns="http://www.w3.org/2000/svg"
 width="1080.000000pt" height="1080.000000pt" viewBox="0 0 1080.000000 1080.000000"
 preserveAspectRatio="xMidYMid meet">

<g transform="translate(0.000000,1080.000000) scale(0.100000,-0.100000)"
fill="#000000" stroke="none">
<path d="M4938 8753 c-25 -43 -95 -163 -155 -268 -61 -104 -222 -383 -358
-620 -137 -236 -287 -497 -335 -580 -48 -82 -197 -341 -332 -575 -135 -234
-454 -787 -710 -1230 -675 -1169 -995 -1723 -1311 -2270 -154 -267 -345 -597
-424 -735 -246 -425 -272 -469 -279 -487 -6 -17 88 -18 1885 -18 l1891 0 0
1445 0 1445 83 64 c131 102 404 313 533 411 65 50 151 116 191 148 l73 59 0
444 0 445 23 22 c190 183 401 383 408 385 5 2 9 7 9 12 0 4 -71 131 -158 281
-230 398 -426 736 -712 1234 -139 242 -258 446 -265 453 -10 11 -21 -2 -57
-65z"/>
</g>
</svg>
